<svg width="206" height="52" viewBox="0 0 206 52" fill="none" xmlns="http://www.w3.org/2000/svg">
<path d="M0.312351 20.1932C0.114834 20.2897 0.0803771 20.4696 0.160754 20.6342L9.50057 39.7604C9.58095 39.925 9.77693 39.9924 9.94152 39.912L29.397 30.4114L39.196 33.7803L26.4803 7.74091C26.3839 7.54339 26.204 7.50893 26.0394 7.58931L0.329195 20.1442L0.312351 20.1932Z" fill="#8C82FC"/>
<path d="M54.3554 40.6C52.322 40.6 50.472 40.2 48.8054 39.4C47.172 38.5667 45.872 37.3 44.9054 35.6C43.9387 33.9 43.4554 31.7333 43.4554 29.1C43.4554 26.6333 43.9554 24.5 44.9554 22.7C45.9554 20.9 47.272 19.5167 48.9054 18.55C50.5387 17.55 52.272 17.05 54.1054 17.05C56.272 17.05 57.9054 17.4167 59.0054 18.15C60.1387 18.85 61.072 19.6333 61.8054 20.5L61.5054 21.35L62.1554 18.15H68.6554V40H61.6554V35.25L62.2054 36.75C62.1387 36.75 61.9387 36.95 61.6054 37.35C61.272 37.7167 60.772 38.1667 60.1054 38.7C59.472 39.2 58.672 39.6333 57.7054 40C56.772 40.4 55.6554 40.6 54.3554 40.6ZM56.3554 34.9C57.1887 34.9 57.9387 34.7833 58.6054 34.55C59.272 34.2833 59.8554 33.9167 60.3554 33.45C60.8554 32.95 61.2887 32.3333 61.6554 31.6V26.25C61.3887 25.5167 60.9887 24.9 60.4554 24.4C59.922 23.8667 59.2887 23.4667 58.5554 23.2C57.822 22.9 57.0054 22.75 56.1054 22.75C55.1054 22.75 54.172 23.0167 53.3054 23.55C52.472 24.05 51.8054 24.75 51.3054 25.65C50.8054 26.55 50.5554 27.5833 50.5554 28.75C50.5554 29.9167 50.822 30.9667 51.3554 31.9C51.8887 32.8333 52.5887 33.5667 53.4554 34.1C54.3554 34.6333 55.322 34.9 56.3554 34.9ZM82.7183 40.45C80.9183 40.45 79.2349 40.1333 77.6683 39.5C76.1349 38.8667 74.8349 37.9833 73.7683 36.85L76.6683 33C77.7349 33.9667 78.7183 34.6667 79.6183 35.1C80.5516 35.5 81.3849 35.7 82.1183 35.7C82.6849 35.7 83.1849 35.65 83.6183 35.55C84.0849 35.4167 84.4516 35.2333 84.7183 35C84.9849 34.7333 85.1183 34.4 85.1183 34C85.1183 33.4333 84.8849 32.9833 84.4183 32.65C83.9849 32.3167 83.4183 32.05 82.7183 31.85C82.0183 31.6167 81.2683 31.3833 80.4683 31.15C78.4683 30.5167 77.0183 29.6 76.1183 28.4C75.2516 27.1667 74.8183 25.8333 74.8183 24.4C74.8183 23.3 75.1016 22.2 75.6683 21.1C76.2683 19.9667 77.2016 19.0333 78.4683 18.3C79.7683 17.5333 81.4349 17.15 83.4683 17.15C85.3016 17.15 86.8516 17.3333 88.1183 17.7C89.3849 18.0667 90.5849 18.6667 91.7183 19.5L89.0683 23.6C88.4349 23.1 87.7183 22.6833 86.9183 22.35C86.1516 21.9833 85.4349 21.7833 84.7683 21.75C84.1683 21.7167 83.6516 21.7833 83.2183 21.95C82.8183 22.1167 82.5016 22.3333 82.2683 22.6C82.0349 22.8667 81.9183 23.15 81.9183 23.45C81.8849 24.0833 82.1183 24.5833 82.6183 24.95C83.1516 25.3167 83.8183 25.6 84.6183 25.8C85.4183 26 86.2016 26.2333 86.9683 26.5C88.0349 26.8333 88.9516 27.2833 89.7183 27.85C90.4849 28.4167 91.0683 29.1 91.4683 29.9C91.9016 30.6667 92.1183 31.6 92.1183 32.7C92.1183 34.0333 91.7683 35.3 91.0683 36.5C90.4016 37.6667 89.3683 38.6167 87.9683 39.35C86.6016 40.0833 84.8516 40.45 82.7183 40.45ZM97.7315 40V0.549998H104.732V40H97.7315ZM110.282 25.15L120.182 40H112.032L105.682 29.15L110.282 25.15ZM102.632 33.95L101.932 27.3L115.132 17.6L119.382 21.35L102.632 33.95ZM138.476 40.6C137.176 40.6 135.893 40.3667 134.626 39.9C133.393 39.4 132.36 38.7 131.526 37.8L131.726 35.75V50.5H124.776V17.65H130.776L131.776 21.9L131.226 20.4C132.36 19.4333 133.626 18.6333 135.026 18C136.426 17.3667 138.043 17.05 139.876 17.05C141.91 17.05 143.726 17.5333 145.326 18.5C146.926 19.4333 148.176 20.8 149.076 22.6C150.01 24.3667 150.476 26.5 150.476 29C150.476 31.4667 149.96 33.5667 148.926 35.3C147.893 37.0333 146.476 38.35 144.676 39.25C142.876 40.15 140.81 40.6 138.476 40.6ZM137.076 35.1C138.21 35.1 139.243 34.85 140.176 34.35C141.143 33.85 141.91 33.15 142.476 32.25C143.076 31.3167 143.376 30.2667 143.376 29.1C143.376 27.8667 143.11 26.8 142.576 25.9C142.076 24.9667 141.376 24.25 140.476 23.75C139.61 23.2167 138.643 22.95 137.576 22.95C136.643 22.95 135.81 23.0833 135.076 23.35C134.376 23.5833 133.743 23.95 133.176 24.45C132.643 24.9167 132.176 25.5167 131.776 26.25V31.6C132.043 32.3 132.426 32.9167 132.926 33.45C133.426 33.9833 134.026 34.4 134.726 34.7C135.46 34.9667 136.243 35.1 137.076 35.1ZM164.628 40.6C162.594 40.6 160.778 40.1333 159.178 39.2C157.578 38.2333 156.311 36.85 155.378 35.05C154.478 33.25 154.028 31.1167 154.028 28.65C154.028 26.1833 154.528 24.0833 155.528 22.35C156.528 20.6167 157.894 19.3 159.628 18.4C161.361 17.5 163.328 17.05 165.528 17.05C166.928 17.05 168.261 17.2667 169.528 17.7C170.828 18.1333 171.911 18.8 172.778 19.7V21.9V0.549998H179.728V40H172.728V35.75L173.278 37.25C172.144 38.1833 170.878 38.9833 169.478 39.65C168.078 40.2833 166.461 40.6 164.628 40.6ZM166.928 34.7C167.861 34.7 168.678 34.5833 169.378 34.35C170.111 34.0833 170.744 33.7167 171.278 33.25C171.844 32.75 172.328 32.1333 172.728 31.4V26.05C172.461 25.3167 172.044 24.7 171.478 24.2C170.944 23.6667 170.278 23.2667 169.478 23C168.711 22.7 167.861 22.55 166.928 22.55C165.894 22.55 164.928 22.8167 164.028 23.35C163.161 23.85 162.461 24.55 161.928 25.45C161.394 26.35 161.128 27.3833 161.128 28.55C161.128 29.7167 161.394 30.7667 161.928 31.7C162.461 32.6333 163.161 33.3667 164.028 33.9C164.928 34.4333 165.894 34.7 166.928 34.7ZM188.779 40V24.25H185.079V18.05H188.779V10.45C188.779 7.58333 189.595 5.25 191.229 3.45C192.895 1.61667 195.295 0.699999 198.429 0.699999C199.362 0.699999 200.395 0.849999 201.529 1.15C202.695 1.41666 203.712 1.86666 204.579 2.5L201.629 7.55C201.295 7.11666 200.895 6.83333 200.429 6.7C199.995 6.53333 199.579 6.45 199.179 6.45C198.179 6.45 197.362 6.78333 196.729 7.45C196.095 8.11666 195.779 9.18333 195.779 10.65V18.05H202.379V24.25H195.779V40H188.779Z" fill="#8C82FC"/>
<path d="M10.6434 24.304C10.6434 23.8347 10.814 23.44 11.1554 23.12C11.518 22.7787 11.9127 22.608 12.3394 22.608C12.7234 22.608 13.086 22.7787 13.4274 23.12C13.79 23.44 13.9714 23.8347 13.9714 24.304C13.9714 24.816 13.79 25.232 13.4274 25.552C13.086 25.8507 12.7234 26 12.3394 26C11.9127 26 11.518 25.8507 11.1554 25.552C10.814 25.232 10.6434 24.816 10.6434 24.304ZM16.0184 24.304C16.0184 23.8347 16.189 23.44 16.5304 23.12C16.893 22.7787 17.2877 22.608 17.7144 22.608C18.0984 22.608 18.461 22.7787 18.8024 23.12C19.165 23.44 19.3464 23.8347 19.3464 24.304C19.3464 24.816 19.165 25.232 18.8024 25.552C18.461 25.8507 18.0984 26 17.7144 26C17.2877 26 16.893 25.8507 16.5304 25.552C16.189 25.232 16.0184 24.816 16.0184 24.304ZM21.3934 24.304C21.3934 23.8347 21.564 23.44 21.9054 23.12C22.268 22.7787 22.6627 22.608 23.0894 22.608C23.4734 22.608 23.836 22.7787 24.1774 23.12C24.54 23.44 24.7214 23.8347 24.7214 24.304C24.7214 24.816 24.54 25.232 24.1774 25.552C23.836 25.8507 23.4734 26 23.0894 26C22.6627 26 22.268 25.8507 21.9054 25.552C21.564 25.232 21.3934 24.816 21.3934 24.304Z" fill="white"/>
</svg>
